<svg xmlns="http://www.w3.org/2000/svg" width="37.242" height="37.227" viewBox="0 0 37.242 37.227"><g transform="translate(22.285 -4.284)"><g transform="translate(-22.285 4.284)"><path d="M-3.639,5.193a17.672,17.672,0,0,1,17.686,17.7A17.67,17.67,0,0,1-2.132,40.521a8.425,8.425,0,0,1-1.507.091A17.323,17.323,0,0,1-7.478,40.2a17.776,17.776,0,0,1-13.9-17.31A17.717,17.717,0,0,1-3.639,5.193m0-.909A18.653,18.653,0,0,0-22.285,22.89,18.822,18.822,0,0,0-7.68,41.091a18.859,18.859,0,0,0,4.04.421,11.4,11.4,0,0,0,1.664-.081A18.644,18.644,0,0,0,14.957,22.89,18.629,18.629,0,0,0-3.639,4.284Z" transform="translate(22.285 -4.284)"/></g><g transform="translate(-10.407 14.611)"><path d="M-7.209,14.324a2.068,2.068,0,0,1,1.6-.555,9.213,9.213,0,0,1,2.418.34l.688-3.714a13.073,13.073,0,0,0-4.387-.636,7.173,7.173,0,0,0-3.656.783,4.051,4.051,0,0,0-1.965,2.007,9.652,9.652,0,0,0-.549,3.748v1.46h-2.929V22h2.929V35.348a17.323,17.323,0,0,0,3.839.411,8.424,8.424,0,0,0,1.507-.091V22h3.884V17.757H-7.713V16.387A2.91,2.91,0,0,1-7.209,14.324Z" transform="translate(15.988 -9.759)"/></g></g></svg>