<svg xmlns="http://www.w3.org/2000/svg" width="37.235" height="37.242" viewBox="0 0 37.235 37.242"><g transform="translate(-62.372 -4.376)"><g transform="translate(62.372 4.376)"><path d="M41.21,5.24a17.714,17.714,0,1,1-17.7,17.714A17.716,17.716,0,0,1,41.21,5.24m0-.907A18.621,18.621,0,1,0,59.831,22.954,18.636,18.636,0,0,0,41.21,4.333Z" transform="translate(-22.596 -4.333)"/></g><path d="M38.1,16.829c0-.424-.009-.809,0-1.192.009-.258-.072-.358-.345-.355-.949.015-1.9.013-2.843,0-.262,0-.358.074-.357.343q.008,5.492,0,10.984c0,.243.083.313.321.309,1-.011,1.992-.015,2.988,0,.29.006.375-.072.373-.37-.013-1.805-.021-3.612,0-5.419a7.2,7.2,0,0,1,.183-1.515,1.565,1.565,0,0,1,1.156-1.258c1.334-.332,2.326.034,2.526,1.5a8.528,8.528,0,0,1,.091,1.094q.014,2.827,0,5.651c0,.238.062.317.307.313,1.005-.011,2.011-.015,3.016,0,.294.006.377-.075.375-.37-.013-1.962.015-3.923-.017-5.883a16.37,16.37,0,0,0-.234-2.56,3.442,3.442,0,0,0-1.811-2.618,4.742,4.742,0,0,0-1.9-.458A4.02,4.02,0,0,0,38.1,16.829Zm-9.361,4.3c0,1.816.006,3.631-.008,5.448,0,.287.087.353.36.349,1-.015,1.992-.013,2.988,0,.243,0,.307-.075.307-.311q-.011-5.506,0-11.014c0-.243-.081-.313-.317-.311-1,.009-1.992.015-2.988,0-.289-.006-.351.1-.349.366C28.737,17.474,28.734,19.3,28.734,21.126ZM30.546,13.8a2.129,2.129,0,1,0,.023-4.257,2.129,2.129,0,0,0-.023,4.257Z" transform="translate(44.96 4.664)"/></g></svg>