<svg xmlns="http://www.w3.org/2000/svg" xmlns:xlink="http://www.w3.org/1999/xlink" width="39" height="340" viewBox="0 0 39 340"><defs><style>.a{fill:#fff;stroke:#707070;}.b{clip-path:url(#a);}.c,.f{fill:#e5432f;}.c{font-size:20px;font-family:SpecialElite-Regular, Special Elite;}.d{isolation:isolate;}.e{fill:#0b0b0b;}</style><clipPath id="a"><rect class="a" width="39" height="340" transform="translate(331 1966)"/></clipPath></defs><g class="b" transform="translate(-331 -1966)"><g transform="translate(-543 1541)"><rect width="52" height="338" transform="translate(869 425)"/><g transform="translate(-2 8)"><text class="c" transform="translate(901 503.5) rotate(-90)"><tspan x="0" y="0">SCROLL</tspan></text><g transform="translate(762.611 344.009)"><g class="d" transform="translate(128.389 183.991)"><line class="e" x2="11.062" transform="translate(0 1.648)"/><rect class="f" width="11.062" height="3.296"/></g><g class="d" transform="translate(128.389 201.915)"><line class="e" x2="11.062" transform="translate(0 1.648)"/><rect class="f" width="11.062" height="3.296"/></g><g class="d" transform="translate(128.389 219.838)"><line class="e" x2="11.062" transform="translate(0 1.648)"/><rect class="f" width="11.062" height="3.296"/></g><g class="d" transform="translate(128.389 237.762)"><line class="e" x2="11.062" transform="translate(0 1.648)"/><rect class="f" width="11.062" height="3.296"/></g><g class="d" transform="translate(128.389 255.685)"><line class="e" x2="11.062" transform="translate(0 1.648)"/><rect class="f" width="11.062" height="3.296"/></g><g class="d" transform="translate(128.389 273.608)"><line class="e" x2="11.062" transform="translate(0 1.648)"/><rect class="f" width="11.062" height="3.296"/></g><g class="d" transform="translate(128.389 291.532)"><line class="e" x2="11.062" transform="translate(0 1.648)"/><rect class="f" width="11.062" height="3.296" transform="translate(0 0)"/></g><g class="d" transform="translate(128.389 309.456)"><line class="e" x2="11.062" transform="translate(0 1.648)"/><rect class="f" width="11.062" height="3.296" transform="translate(0 0)"/></g><g class="d" transform="translate(128.389 327.379)"><line class="e" x2="11.062" transform="translate(0 1.648)"/><rect class="f" width="11.062" height="3.296"/></g><g class="d" transform="translate(128.389 345.303)"><line class="e" x2="11.062" transform="translate(0 1.648)"/><rect class="f" width="11.062" height="3.296"/></g><g class="d" transform="translate(128.389 363.227)"><line class="e" x2="11.062" transform="translate(0 1.648)"/><rect class="f" width="11.062" height="3.296" transform="translate(0 0)"/></g><g class="d" transform="translate(128.389 381.15)"><line class="e" x2="11.062" transform="translate(0 1.648)"/><rect class="f" width="11.062" height="3.296" transform="translate(0 0)"/></g><g class="d" transform="translate(128.389 399.073)"><line class="e" x2="11.062" transform="translate(0 1.648)"/><rect class="f" width="11.062" height="3.296" transform="translate(0 0)"/></g><g class="d" transform="translate(128.389 416.997)"><line class="e" x2="11.062" transform="translate(0 1.648)"/><rect class="f" width="11.062" height="3.296" transform="translate(0 0)"/></g><g class="d" transform="translate(128.389 434.921)"><line class="e" x2="11.062" transform="translate(0 1.648)"/><rect class="f" width="11.062" height="3.296"/></g><g class="d" transform="translate(128.389 452.844)"><line class="e" x2="11.062" transform="translate(0 1.648)"/><rect class="f" width="11.062" height="3.296"/></g></g></g></g></g></svg>