<svg xmlns="http://www.w3.org/2000/svg" width="21" height="208.337" viewBox="0 0 21 208.337"><defs><style>.a,.d{fill:#e5432f;}.a{font-size:20px;font-family:SpecialElite-Regular, Special Elite;}.b{isolation:isolate;}.c{fill:#0b0b0b;}</style></defs><g transform="translate(-886 -430.5)"><text class="a" transform="translate(901 503.5) rotate(-90)"><tspan x="0" y="0">SCROLL</tspan></text><g transform="translate(762.611 344.009)"><g class="b" transform="translate(128.389 183.991)"><line class="c" x2="11.062" transform="translate(0 1.648)"/><rect class="d" width="11.062" height="3.296"/></g><g class="b" transform="translate(128.389 201.915)"><line class="c" x2="11.062" transform="translate(0 1.648)"/><rect class="d" width="11.062" height="3.296"/></g><g class="b" transform="translate(128.389 219.838)"><line class="c" x2="11.062" transform="translate(0 1.648)"/><rect class="d" width="11.062" height="3.296"/></g><g class="b" transform="translate(128.389 237.762)"><line class="c" x2="11.062" transform="translate(0 1.648)"/><rect class="d" width="11.062" height="3.296"/></g><g class="b" transform="translate(128.389 255.685)"><line class="c" x2="11.062" transform="translate(0 1.648)"/><rect class="d" width="11.062" height="3.296"/></g><g class="b" transform="translate(128.389 273.608)"><line class="c" x2="11.062" transform="translate(0 1.648)"/><rect class="d" width="11.062" height="3.296"/></g><g class="b" transform="translate(128.389 291.532)"><line class="c" x2="11.062" transform="translate(0 1.648)"/><rect class="d" width="11.062" height="3.296" transform="translate(0 0)"/></g></g></g></svg>