<svg xmlns="http://www.w3.org/2000/svg" width="128.761" height="11.062" viewBox="0 0 128.761 11.062"><defs><style>.a{isolation:isolate;}.b{fill:#0b0b0b;}.c{fill:#e5432f;}</style></defs><g transform="translate(3111.608 -889) rotate(90)"><g class="a" transform="translate(889 2982.847)"><line class="b" x2="11.062" transform="translate(0 1.648)"/><rect class="c" width="11.062" height="3.296"/></g><g class="a" transform="translate(889 3000.771)"><line class="b" x2="11.062" transform="translate(0 1.648)"/><rect class="c" width="11.062" height="3.296"/></g><g class="a" transform="translate(889 3018.694)"><line class="b" x2="11.062" transform="translate(0 1.648)"/><rect class="c" width="11.062" height="3.296"/></g><g class="a" transform="translate(889 3036.618)"><line class="b" x2="11.062" transform="translate(0 1.648)"/><rect class="c" width="11.062" height="3.296"/></g><g class="a" transform="translate(889 3054.542)"><line class="b" x2="11.062" transform="translate(0 1.648)"/><rect class="c" width="11.062" height="3.296" transform="translate(0 0)"/></g><g class="a" transform="translate(889 3072.465)"><line class="b" x2="11.062" transform="translate(0 1.648)"/><rect class="c" width="11.062" height="3.296" transform="translate(0 0)"/></g><g class="a" transform="translate(889 3090.389)"><line class="b" x2="11.062" transform="translate(0 1.648)"/><rect class="c" width="11.062" height="3.296"/></g><g class="a" transform="translate(889 3108.312)"><line class="b" x2="11.062" transform="translate(0 1.648)"/><rect class="c" width="11.062" height="3.296"/></g></g></svg>