<svg xmlns="http://www.w3.org/2000/svg" width="684.143" height="14.728" viewBox="0 0 684.143 14.728"><defs><style>.a{isolation:isolate;}.b{fill:#0b0b0b;}.c{fill:#e5432f;}</style></defs><g transform="translate(3214.194 -889) rotate(90)"><g class="a" transform="translate(889 2982.847)"><line class="b" x2="14.728" transform="translate(0 2.961)"/><rect class="c" width="14.728" height="5.922"/></g><g class="a" transform="translate(889 2627.847)"><line class="b" x2="14.728" transform="translate(0 2.961)"/><rect class="c" width="14.728" height="5.922"/></g><g class="a" transform="translate(889 2724.847)"><line class="b" x2="14.728" transform="translate(0 2.961)"/><rect class="c" width="14.728" height="5.922"/></g><g class="a" transform="translate(889 2594.847)"><line class="b" x2="14.728" transform="translate(0 2.961)"/><rect class="c" width="14.728" height="5.922"/></g><g class="a" transform="translate(889 3015.051)"><line class="b" x2="14.728" transform="translate(0 2.96)"/><rect class="c" width="14.728" height="5.922"/></g><g class="a" transform="translate(889 2660.051)"><line class="b" x2="14.728" transform="translate(0 2.96)"/><rect class="c" width="14.728" height="5.922"/></g><g class="a" transform="translate(889 2530.051)"><line class="b" x2="14.728" transform="translate(0 2.96)"/><rect class="c" width="14.728" height="5.922"/></g><g class="a" transform="translate(889 2757.051)"><line class="b" x2="14.728" transform="translate(0 2.96)"/><rect class="c" width="14.728" height="5.922"/></g><g class="a" transform="translate(889 3047.255)"><line class="b" x2="14.728" transform="translate(0 2.961)"/><rect class="c" width="14.728" height="5.922"/></g><g class="a" transform="translate(889 2692.255)"><line class="b" x2="14.728" transform="translate(0 2.961)"/><rect class="c" width="14.728" height="5.922"/></g><g class="a" transform="translate(889 2562.255)"><line class="b" x2="14.728" transform="translate(0 2.961)"/><rect class="c" width="14.728" height="5.922"/></g><g class="a" transform="translate(889 2789.255)"><line class="b" x2="14.728" transform="translate(0 2.961)"/><rect class="c" width="14.728" height="5.922"/></g><g class="a" transform="translate(889 3079.458)"><line class="b" x2="14.728" transform="translate(0 2.961)"/><rect class="c" width="14.728" height="5.922"/></g><g class="a" transform="translate(889 2821.458)"><line class="b" x2="14.728" transform="translate(0 2.961)"/><rect class="c" width="14.728" height="5.922"/></g><g class="a" transform="translate(889 3111.662)"><line class="b" x2="14.728" transform="translate(0 2.961)"/><rect class="c" width="14.728" height="5.922" transform="translate(0 0)"/></g><g class="a" transform="translate(889 2853.662)"><line class="b" x2="14.728" transform="translate(0 2.961)"/><rect class="c" width="14.728" height="5.922" transform="translate(0 0)"/></g><g class="a" transform="translate(889 3143.865)"><line class="b" x2="14.728" transform="translate(0 2.961)"/><rect class="c" width="14.728" height="5.922" transform="translate(0 0)"/></g><g class="a" transform="translate(889 2885.865)"><line class="b" x2="14.728" transform="translate(0 2.961)"/><rect class="c" width="14.728" height="5.922" transform="translate(0 0)"/></g><g class="a" transform="translate(889 3176.069)"><line class="b" x2="14.728" transform="translate(0 2.961)"/><rect class="c" width="14.728" height="5.922"/></g><g class="a" transform="translate(889 2918.069)"><line class="b" x2="14.728" transform="translate(0 2.961)"/><rect class="c" width="14.728" height="5.922"/></g><g class="a" transform="translate(889 3208.272)"><line class="b" x2="14.728" transform="translate(0 2.961)"/><rect class="c" width="14.728" height="5.922"/></g><g class="a" transform="translate(889 2950.272)"><line class="b" x2="14.728" transform="translate(0 2.961)"/><rect class="c" width="14.728" height="5.922"/></g></g></svg>