<svg xmlns="http://www.w3.org/2000/svg" width="37.24" height="37.244" viewBox="0 0 37.24 37.244"><defs><style>.a{fill-rule:evenodd;}</style></defs><g transform="translate(-19.545 -4.482)"><g transform="translate(19.545 4.482)"><path d="M18.518,5.3A17.714,17.714,0,1,1,.8,23.012,17.708,17.708,0,0,1,18.518,5.3m0-.909A18.622,18.622,0,1,0,37.131,23.012,18.647,18.647,0,0,0,18.518,4.389Z" transform="translate(0.109 -4.389)"/></g><g transform="translate(27.448 13.863)"><path class="a" d="M4.081,25.817a10.079,10.079,0,0,0,4.855-.834,8.756,8.756,0,0,0,1.947-1.171,4.7,4.7,0,0,1-2.015-.5,4.574,4.574,0,0,1-2.22-2.484c-.1-.249-.1-.249.174-.232a3.782,3.782,0,0,0,1.709-.106,4.91,4.91,0,0,1-1.1-.423,4.683,4.683,0,0,1-2.518-3.971c-.015-.206.041-.23.232-.14a4.493,4.493,0,0,0,1.824.494c-.3-.262-.553-.477-.785-.709a4.769,4.769,0,0,1-.734-5.274c.115-.232.157-.232.313-.049a13.193,13.193,0,0,0,8.122,4.531c.33.066.694.066,1.032.14.232.034.257-.074.223-.247a4.662,4.662,0,0,1,7.792-4.193.522.522,0,0,0,.513.124,8.738,8.738,0,0,0,2.46-.966.467.467,0,0,0,.2-.124,4.593,4.593,0,0,1-1.965,2.575A9.675,9.675,0,0,0,26.65,11.6c.015.108-.068.174-.117.264A9.521,9.521,0,0,1,24.6,13.842a.39.39,0,0,0-.174.372,13.546,13.546,0,0,1-3.21,9.1,12.547,12.547,0,0,1-7.775,4.359,13.223,13.223,0,0,1-9.262-1.8A.154.154,0,0,0,4.081,25.817Z" transform="translate(-4.081 -9.362)"/></g></g></svg>