<svg xmlns="http://www.w3.org/2000/svg" width="37.235" height="37.242" viewBox="0 0 37.235 37.242"><g transform="translate(-62.372 -4.376)"><g transform="translate(62.372 4.376)"><path d="M41.21,5.24a17.714,17.714,0,1,1-17.7,17.714A17.716,17.716,0,0,1,41.21,5.24m0-.907A18.621,18.621,0,1,0,59.831,22.954,18.636,18.636,0,0,0,41.21,4.333Z" transform="translate(-22.596 -4.333)"/></g><path d="M20.4-3.552a2.766,2.766,0,0,0-1.836-2.035c-1.63-.494-8.15-.494-8.15-.494s-6.52,0-8.15.476A2.825,2.825,0,0,0,.429-3.552,33.717,33.717,0,0,0,0,2,33.593,33.593,0,0,0,.429,7.555,2.766,2.766,0,0,0,2.265,9.59c1.647.495,8.15.495,8.15.495s6.52,0,8.15-.476A2.766,2.766,0,0,0,20.4,7.574a33.728,33.728,0,0,0,.429-5.554A32.005,32.005,0,0,0,20.4-3.552ZM8.339,5.463V-1.46L13.76,2Zm0,0" transform="translate(70.321 21.38)"/></g></svg>